# xmcd CD database file
#
# Track frame offsets:
#	150
#	20565
#	37732
#	53594
#	71162
#	86471
#	102162
#	117837
#	142236
#	161662
#
# Disc length: 2328 seconds
#
# Revision: 0
# Processed by: cddbd v1.5.2PL0 Copyright (c) Steve Scherf et al.
# Submitted via: CDex 1.70beta2
#
DISCID=8009160a
DTITLE=Jacques Pelzer  - Jacques Pelzer Quartet Featuring Dino Piana 
DYEAR=1961
DGENRE=Jazz
TTITLE0=Day By Day 
TTITLE1=Baby
TTITLE2=Strictly Romantic
TTITLE3=Work Song
TTITLE4=It Might As Well Be Spring 
TTITLE5=I Didn’t Know What Time It Was
TTITLE6=Minority 
TTITLE7=Just One Of Those Things 
TTITLE8=I Should Care 
TTITLE9=Stork Blues 
EXTD=YEAR: 1961
EXTT0=
EXTT1=
EXTT2=
EXTT3=
EXTT4=
EXTT5=
EXTT6=
EXTT7=
EXTT8=
EXTT9=
PLAYORDER=
